<?xml version="1.0" encoding="UTF-8"?>
<svg id="Warstwa_1" data-name="Warstwa 1" xmlns="http://www.w3.org/2000/svg" xmlns:xlink="http://www.w3.org/1999/xlink" viewBox="0 0 800 800">
  <defs>
    <style>
      .cls-1 {
        stroke: url(#Gradient_bez_nazwy_13);
      }

      .cls-1, .cls-2, .cls-3, .cls-4, .cls-5, .cls-6, .cls-7, .cls-8, .cls-9, .cls-10, .cls-11, .cls-12, .cls-13, .cls-14, .cls-15, .cls-16, .cls-17, .cls-18, .cls-19, .cls-20, .cls-21 {
        stroke-miterlimit: 10;
      }

      .cls-1, .cls-2, .cls-3, .cls-4, .cls-7, .cls-9, .cls-10, .cls-22, .cls-11, .cls-13, .cls-15, .cls-17, .cls-23, .cls-18, .cls-20, .cls-21 {
        fill: none;
      }

      .cls-1, .cls-5, .cls-6, .cls-9, .cls-10, .cls-11, .cls-12, .cls-13, .cls-15, .cls-17, .cls-23, .cls-18 {
        stroke-width: 13.25px;
      }

      .cls-2 {
        stroke: url(#Gradient_bez_nazwy_175);
      }

      .cls-2, .cls-7 {
        stroke-width: 72.87px;
      }

      .cls-3 {
        stroke: url(#Gradient_bez_nazwy_44);
      }

      .cls-3, .cls-21 {
        stroke-width: 66.25px;
      }

      .cls-4 {
        stroke-width: 1.32px;
      }

      .cls-4, .cls-6, .cls-23 {
        stroke: #36698d;
      }

      .cls-5 {
        stroke: url(#Gradient_bez_nazwy_99);
      }

      .cls-5, .cls-6, .cls-12 {
        fill: #62bfc6;
      }

      .cls-7 {
        stroke: url(#Gradient_bez_nazwy_691-2);
      }

      .cls-8 {
        stroke: #000;
        stroke-width: .33px;
      }

      .cls-8, .cls-24 {
        fill: #36698d;
      }

      .cls-9 {
        stroke: url(#Gradient_bez_nazwy_70-2);
      }

      .cls-10 {
        stroke: url(#Gradient_bez_nazwy_695-3);
      }

      .cls-11 {
        stroke: url(#Gradient_bez_nazwy_687);
      }

      .cls-12 {
        stroke: url(#Gradient_bez_nazwy_99-2);
      }

      .cls-25 {
        fill: #f87e19;
      }

      .cls-13 {
        stroke: url(#Gradient_bez_nazwy_695-2);
      }

      .cls-14 {
        stroke: url(#Gradient_bez_nazwy_1486-2);
      }

      .cls-14, .cls-16 {
        fill: #e17628;
        stroke-width: 14.57px;
      }

      .cls-15 {
        stroke: url(#Gradient_bez_nazwy_70);
      }

      .cls-16 {
        stroke: url(#Gradient_bez_nazwy_1486);
      }

      .cls-17 {
        stroke: url(#Gradient_bez_nazwy_695);
      }

      .cls-23 {
        stroke-linejoin: round;
      }

      .cls-18 {
        stroke: #62bfc6;
      }

      .cls-19 {
        fill: #a9dae6;
        stroke: #a9dae6;
        stroke-width: 11.92px;
      }

      .cls-20 {
        stroke: url(#Gradient_bez_nazwy_55);
        stroke-width: 68.9px;
      }

      .cls-21 {
        stroke: url(#Gradient_bez_nazwy_691);
      }
    </style>
    <linearGradient id="Gradient_bez_nazwy_70" data-name="Gradient bez nazwy 70" x1="487.48" y1="237.11" x2="487.48" y2="476.4" gradientTransform="translate(1.25 -423.16) rotate(.63) scale(1 2.07) skewX(1)" gradientUnits="userSpaceOnUse">
      <stop offset=".04" stop-color="#e96514"/>
      <stop offset="1" stop-color="#f8c93c"/>
    </linearGradient>
    <linearGradient id="Gradient_bez_nazwy_99" data-name="Gradient bez nazwy 99" x1="301.34" y1="49.85" x2="301.34" y2="566.68" gradientUnits="userSpaceOnUse">
      <stop offset="0" stop-color="#36698d"/>
      <stop offset="0" stop-color="#fff"/>
      <stop offset=".05" stop-color="#eff3f6"/>
      <stop offset=".27" stop-color="#3d6e91"/>
    </linearGradient>
    <linearGradient id="Gradient_bez_nazwy_13" data-name="Gradient bez nazwy 13" x1="578.16" y1="573.98" x2="578.16" y2="95.33" gradientTransform="translate(1.76 55.94) rotate(.22) scale(1 .89)" gradientUnits="userSpaceOnUse">
      <stop offset="0" stop-color="#fff"/>
      <stop offset=".29" stop-color="#1b4060"/>
      <stop offset="1" stop-color="#0e3048"/>
    </linearGradient>
    <linearGradient id="Gradient_bez_nazwy_99-2" data-name="Gradient bez nazwy 99" x1="673.64" y1="108.12" x2="673.64" y2="624.95" gradientTransform="translate(-1.81 262.4) rotate(.01) scale(1 .48) skewX(.28)" xlink:href="#Gradient_bez_nazwy_99"/>
    <linearGradient id="Gradient_bez_nazwy_1486" data-name="Gradient bez nazwy 1486" x1="270.51" y1="543.17" x2="270.51" y2="243.31" gradientTransform="translate(-2.81 -314.79) rotate(-.51) scale(1 1.62) skewX(-.52)" gradientUnits="userSpaceOnUse">
      <stop offset="0" stop-color="#fff"/>
      <stop offset="1" stop-color="#e17628"/>
    </linearGradient>
    <linearGradient id="Gradient_bez_nazwy_695" data-name="Gradient bez nazwy 695" x1="540.33" y1="165.97" x2="554.91" y2="165.97" gradientTransform="translate(2.49 -371.7) rotate(2.76) scale(1 4.1) skewX(10.53)" gradientUnits="userSpaceOnUse">
      <stop offset="0" stop-color="#e34304"/>
      <stop offset=".47" stop-color="#f6af26"/>
      <stop offset=".6" stop-color="#f49b20"/>
      <stop offset=".65" stop-color="#e06116"/>
      <stop offset="1" stop-color="#e2590c"/>
    </linearGradient>
    <linearGradient id="Gradient_bez_nazwy_695-2" data-name="Gradient bez nazwy 695" x1="419.37" y1="163.43" x2="434.02" y2="163.43" gradientTransform="translate(2.45 -432.15) rotate(2.95) scale(1 4.38) skewX(12.06)" xlink:href="#Gradient_bez_nazwy_695"/>
    <linearGradient id="Gradient_bez_nazwy_695-3" data-name="Gradient bez nazwy 695" x1="320.33" y1="167.17" x2="334.9" y2="167.17" gradientTransform="translate(4.07 -467.37) rotate(3.15) scale(1 4.54) skewX(12.98)" xlink:href="#Gradient_bez_nazwy_695"/>
    <linearGradient id="Gradient_bez_nazwy_1486-2" data-name="Gradient bez nazwy 1486" x1="642.61" y1="487.81" x2="642.61" y2="207.44" gradientTransform="translate(-3.65 31.6) rotate(-.35) scale(1 1.1) skewX(-.07)" xlink:href="#Gradient_bez_nazwy_1486"/>
    <linearGradient id="Gradient_bez_nazwy_687" data-name="Gradient bez nazwy 687" x1="168.22" y1="324.1" x2="182.8" y2="324.1" gradientTransform="translate(-1.21 4.52) rotate(.02) scale(1 1.16) skewX(.08)" gradientUnits="userSpaceOnUse">
      <stop offset="0" stop-color="#57e3e3"/>
      <stop offset=".46" stop-color="#3ecac7"/>
      <stop offset=".6" stop-color="#28a0ac"/>
      <stop offset="1" stop-color="#1e8092"/>
    </linearGradient>
    <linearGradient id="Gradient_bez_nazwy_70-2" data-name="Gradient bez nazwy 70" x1="146.82" y1="247.25" x2="146.82" y2="497.74" gradientTransform="translate(3.95 -53.84) rotate(.65) scale(1 1.25) skewX(.17)" xlink:href="#Gradient_bez_nazwy_70"/>
    <linearGradient id="Gradient_bez_nazwy_691" data-name="Gradient bez nazwy 691" x1="310.22" y1="282.73" x2="529.05" y2="282.73" gradientUnits="userSpaceOnUse">
      <stop offset="0" stop-color="#f5dc4c"/>
      <stop offset=".63" stop-color="#f8c93c"/>
      <stop offset="1" stop-color="#e96514"/>
    </linearGradient>
    <linearGradient id="Gradient_bez_nazwy_175" data-name="Gradient bez nazwy 175" x1="471.49" y1="256.05" x2="296.11" y2="431.43" gradientUnits="userSpaceOnUse">
      <stop offset="0" stop-color="#57e3e3"/>
      <stop offset=".46" stop-color="#3ecac7"/>
      <stop offset=".6" stop-color="#28a0ac"/>
      <stop offset="1" stop-color="#1e8092"/>
    </linearGradient>
    <linearGradient id="Gradient_bez_nazwy_691-2" data-name="Gradient bez nazwy 691" x1="333.6" y1="281.52" x2="537.73" y2="281.52" xlink:href="#Gradient_bez_nazwy_691"/>
    <linearGradient id="Gradient_bez_nazwy_55" data-name="Gradient bez nazwy 55" x1="561.58" y1="467.01" x2="356" y2="110.93" gradientUnits="userSpaceOnUse">
      <stop offset="0" stop-color="#36698d"/>
      <stop offset=".26" stop-color="#1b4060"/>
      <stop offset=".64" stop-color="#62bfc6"/>
      <stop offset="1" stop-color="#fff"/>
    </linearGradient>
    <linearGradient id="Gradient_bez_nazwy_44" data-name="Gradient bez nazwy 44" x1="452.33" y1="517.07" x2="248.1" y2="163.33" gradientUnits="userSpaceOnUse">
      <stop offset=".04" stop-color="#e96514"/>
      <stop offset="1" stop-color="#f8c93c"/>
    </linearGradient>
  </defs>
  <g>
    <line class="cls-15" x1="486.84" y1="73.08" x2="486.84" y2="568.29"/>
    <line class="cls-5" x1="303" y1="49.89" x2="299.69" y2="566.63"/>
    <line class="cls-1" x1="579.59" y1="142.64" x2="577.93" y2="566.63"/>
    <line class="cls-12" x1="674" y1="314.89" x2="673.17" y2="564.98"/>
    <line class="cls-19" x1="463.65" y1="54.86" x2="462" y2="566.63"/>
    <line class="cls-16" x1="269.88" y1="78.05" x2="269.88" y2="564.98"/>
    <line class="cls-19" x1="235.1" y1="104.55" x2="237.08" y2="566.3"/>
    <line class="cls-18" x1="205.28" y1="126.08" x2="206.94" y2="566.63"/>
    <line class="cls-17" x1="548.12" y1="104.55" x2="548.12" y2="566.63"/>
    <line class="cls-13" x1="427.22" y1="44.92" x2="427.24" y2="567.37"/>
    <text/>
    <line class="cls-6" x1="364.28" y1="48.24" x2="360.97" y2="564.98"/>
    <line class="cls-10" x1="328.86" y1="54.33" x2="328.03" y2="566.11"/>
    <line class="cls-19" x1="611.06" y1="193.98" x2="612.72" y2="566.63"/>
    <line class="cls-14" x1="640.87" y1="256.92" x2="640.87" y2="566.63"/>
    <line class="cls-11" x1="173.82" y1="195.64" x2="175.48" y2="566.63"/>
    <line class="cls-9" x1="147.32" y1="256.92" x2="145.83" y2="569.95"/>
    <line class="cls-18" x1="114.19" y1="312.24" x2="114.19" y2="566.63"/>
    <g>
      <path class="cls-8" d="M121.75,688.34h-20.29l-29.35-68.04v68.04h-20.51v-105.5h20.51l29.13,67.75.07-67.75h20.43v105.5Z"/>
      <path class="cls-8" d="M211.53,582.84l.07,69.92c0,5.89-.81,11.14-2.43,15.72-1.62,4.59-3.96,8.47-7.03,11.63-3.07,3.17-6.81,5.57-11.23,7.21-4.42,1.64-9.46,2.46-15.11,2.46-5.31,0-10.11-.82-14.38-2.46-4.28-1.64-7.93-4.03-10.98-7.17-3.04-3.14-5.4-7.02-7.06-11.63s-2.5-9.87-2.5-15.76l.07-69.92h20.36l.07,69.92c.05,6.81,1.29,11.96,3.73,15.43,2.44,3.48,6,5.22,10.69,5.22,4.97,0,8.78-1.74,11.41-5.22,2.63-3.48,3.97-8.62,4.02-15.43l.07-69.92h20.22Z"/>
      <path class="cls-8" d="M255.29,582.84l10,39.63,11.38-39.63h25.29v105.5h-18.69v-31.23l.87-49.34-13.84,45.79h-10.07l-12.39-43.84.87,47.39v31.23h-18.69v-105.5h25.29Z"/>
      <path class="cls-8" d="M384.27,642.11h-43.33v29.78h50.65v16.45h-71.08v-105.5h70.87v16.59h-50.43v26.59h43.33v16.09Z"/>
      <path class="cls-8" d="M444.2,648.92h-15.43v39.42h-20.36v-105.5h35.36c5.84,0,11.13.69,15.87,2.06,4.73,1.38,8.78,3.39,12.14,6.05,3.36,2.66,5.94,5.97,7.75,9.93,1.81,3.96,2.72,8.55,2.72,13.77,0,3.77-.45,7.16-1.34,10.18-.89,3.02-2.17,5.72-3.84,8.12-1.67,2.39-3.67,4.48-6.01,6.27-2.34,1.79-4.96,3.33-7.86,4.64l22.68,43.55v.94h-21.81l-19.85-39.42ZM428.76,632.4h15.07c5.75,0,10.18-1.46,13.3-4.38,3.12-2.92,4.67-6.92,4.67-11.99s-1.52-9.36-4.57-12.28c-3.04-2.92-7.54-4.38-13.48-4.38h-15v33.04Z"/>
      <path class="cls-8" d="M501.95,582.84h61.01v16.45h-20.58v72.68h20.58v16.38h-61.01v-16.38h20.07v-72.68h-20.07v-16.45Z"/>
      <path class="cls-8" d="M617.95,645.01l-11.16,12.25v31.08h-20.43v-105.5h20.43v48.33l9.56-12.9,25.65-35.43h24.93l-35.51,46.66,36.81,58.84h-24.2l-26.09-43.33Z"/>
      <path class="cls-8" d="M727.44,666.31h-31.66l-6.23,22.03h-21.45l34.56-105.5h18.48l33.91,105.5h-21.45l-6.16-22.03ZM700.77,648.99h21.88l-10.8-38.84-11.09,38.84Z"/>
    </g>
    <g>
      <path class="cls-25" d="M35.89,732.67h13.68v4.18h-18.92v-30.14h5.24v25.96Z"/>
      <path class="cls-25" d="M71.21,723.4h-12.38v9.28h14.47v4.18h-19.71v-30.14h19.56v4.22h-14.33v8.32h12.38v4.14Z"/>
      <path class="cls-25" d="M93.32,729.09c0-1.33-.47-2.35-1.4-3.06s-2.61-1.44-5.04-2.17c-2.43-.73-4.36-1.55-5.8-2.44-2.75-1.72-4.12-3.97-4.12-6.75,0-2.43.99-4.43,2.97-6,1.98-1.57,4.55-2.36,7.71-2.36,2.1,0,3.97.39,5.61,1.16,1.64.77,2.93,1.87,3.87,3.3s1.41,3.01,1.41,4.75h-5.22c0-1.57-.49-2.8-1.48-3.7s-2.4-1.33-4.23-1.33c-1.71,0-3.04.37-3.99,1.1-.95.73-1.42,1.75-1.42,3.06,0,1.1.51,2.03,1.53,2.76s2.71,1.46,5.05,2.15c2.35.7,4.23,1.49,5.65,2.38,1.42.89,2.46,1.91,3.13,3.06s.99,2.5.99,4.05c0,2.51-.96,4.51-2.89,5.99s-4.54,2.23-7.84,2.23c-2.18,0-4.19-.4-6.01-1.21-1.83-.81-3.25-1.92-4.26-3.34-1.01-1.42-1.52-3.08-1.52-4.97h5.24c0,1.71.57,3.04,1.7,3.97,1.13.94,2.75,1.41,4.87,1.41,1.82,0,3.19-.37,4.11-1.11s1.38-1.71,1.38-2.93Z"/>
      <path class="cls-25" d="M118.91,729.09c0-1.33-.47-2.35-1.4-3.06s-2.61-1.44-5.04-2.17c-2.43-.73-4.36-1.55-5.8-2.44-2.75-1.72-4.12-3.97-4.12-6.75,0-2.43.99-4.43,2.97-6,1.98-1.57,4.55-2.36,7.71-2.36,2.1,0,3.97.39,5.61,1.16,1.64.77,2.93,1.87,3.87,3.3s1.41,3.01,1.41,4.75h-5.22c0-1.57-.49-2.8-1.48-3.7s-2.4-1.33-4.23-1.33c-1.71,0-3.04.37-3.99,1.1-.95.73-1.42,1.75-1.42,3.06,0,1.1.51,2.03,1.53,2.76s2.71,1.46,5.05,2.15c2.35.7,4.23,1.49,5.65,2.38,1.42.89,2.46,1.91,3.13,3.06s.99,2.5.99,4.05c0,2.51-.96,4.51-2.89,5.99s-4.54,2.23-7.84,2.23c-2.18,0-4.19-.4-6.01-1.21-1.83-.81-3.25-1.92-4.26-3.34-1.01-1.42-1.52-3.08-1.52-4.97h5.24c0,1.71.57,3.04,1.7,3.97,1.13.94,2.75,1.41,4.87,1.41,1.82,0,3.19-.37,4.11-1.11s1.38-1.71,1.38-2.93Z"/>
      <path class="cls-24" d="M162.3,727.04c-.3,3.22-1.49,5.72-3.56,7.53-2.07,1.8-4.82,2.7-8.26,2.7-2.4,0-4.52-.57-6.35-1.71s-3.24-2.76-4.23-4.85-1.51-4.53-1.55-7.31v-2.82c0-2.84.5-5.35,1.51-7.51,1.01-2.17,2.45-3.84,4.34-5.01,1.88-1.17,4.06-1.76,6.53-1.76,3.33,0,6,.9,8.03,2.7,2.03,1.8,3.21,4.35,3.54,7.65h-5.22c-.25-2.17-.88-3.73-1.89-4.69-1.01-.96-2.5-1.44-4.46-1.44-2.28,0-4.03.83-5.25,2.5-1.22,1.66-1.85,4.11-1.87,7.33v2.67c0,3.26.58,5.75,1.75,7.46,1.17,1.71,2.87,2.57,5.12,2.57,2.06,0,3.6-.46,4.64-1.39s1.69-2.46,1.97-4.62h5.22Z"/>
      <path class="cls-24" d="M191.04,722.57c0,2.95-.51,5.54-1.53,7.77-1.02,2.23-2.48,3.94-4.38,5.13-1.9,1.19-4.08,1.79-6.55,1.79s-4.62-.6-6.53-1.79c-1.91-1.19-3.39-2.89-4.43-5.1-1.04-2.21-1.57-4.75-1.58-7.64v-1.7c0-2.94.52-5.53,1.56-7.78,1.04-2.25,2.51-3.97,4.41-5.17,1.9-1.19,4.07-1.79,6.53-1.79s4.63.59,6.53,1.77c1.9,1.18,3.36,2.88,4.4,5.09s1.56,4.79,1.57,7.73v1.68ZM185.8,721c0-3.34-.63-5.9-1.89-7.68-1.26-1.78-3.05-2.67-5.37-2.67s-4.03.89-5.31,2.66c-1.28,1.77-1.93,4.28-1.96,7.53v1.74c0,3.31.65,5.87,1.94,7.68,1.29,1.81,3.08,2.71,5.37,2.71s4.1-.88,5.35-2.65c1.25-1.77,1.87-4.35,1.87-7.74v-1.57Z"/>
      <path class="cls-24" d="M220.17,736.85h-5.24l-13.44-21.39v21.39h-5.24v-30.14h5.24l13.48,21.47v-21.47h5.2v30.14Z"/>
      <path class="cls-24" d="M243.73,724.08h-12.13v12.77h-5.24v-30.14h19.15v4.22h-13.91v8.96h12.13v4.18Z"/>
      <path class="cls-24" d="M271.7,706.71v20.14c0,3.2-1.02,5.74-3.07,7.61-2.05,1.87-4.78,2.81-8.19,2.81s-6.19-.92-8.22-2.76c-2.03-1.84-3.04-4.4-3.04-7.67v-20.12h5.22v20.17c0,2.01.51,3.55,1.53,4.62,1.02,1.06,2.53,1.59,4.51,1.59,4.03,0,6.05-2.13,6.05-6.38v-20h5.22Z"/>
      <path class="cls-24" d="M293.04,729.09c0-1.33-.47-2.35-1.4-3.06s-2.61-1.44-5.04-2.17c-2.43-.73-4.36-1.55-5.8-2.44-2.75-1.72-4.12-3.97-4.12-6.75,0-2.43.99-4.43,2.97-6,1.98-1.57,4.55-2.36,7.71-2.36,2.1,0,3.97.39,5.61,1.16,1.64.77,2.93,1.87,3.87,3.3s1.41,3.01,1.41,4.75h-5.22c0-1.57-.49-2.8-1.48-3.7s-2.4-1.33-4.23-1.33c-1.71,0-3.04.37-3.99,1.1-.95.73-1.42,1.75-1.42,3.06,0,1.1.51,2.03,1.53,2.76s2.71,1.46,5.05,2.15c2.35.7,4.23,1.49,5.65,2.38,1.42.89,2.46,1.91,3.13,3.06s.99,2.5.99,4.05c0,2.51-.96,4.51-2.89,5.99s-4.54,2.23-7.84,2.23c-2.18,0-4.19-.4-6.01-1.21-1.83-.81-3.25-1.92-4.26-3.34-1.01-1.42-1.52-3.08-1.52-4.97h5.24c0,1.71.57,3.04,1.7,3.97,1.13.94,2.75,1.41,4.87,1.41,1.82,0,3.19-.37,4.11-1.11s1.38-1.71,1.38-2.93Z"/>
      <path class="cls-24" d="M308.4,736.85h-5.22v-30.14h5.22v30.14Z"/>
      <path class="cls-24" d="M338.9,722.57c0,2.95-.51,5.54-1.53,7.77-1.02,2.23-2.48,3.94-4.38,5.13-1.9,1.19-4.08,1.79-6.55,1.79s-4.62-.6-6.53-1.79c-1.91-1.19-3.39-2.89-4.43-5.1-1.04-2.21-1.57-4.75-1.58-7.64v-1.7c0-2.94.52-5.53,1.56-7.78,1.04-2.25,2.51-3.97,4.41-5.17,1.9-1.19,4.07-1.79,6.53-1.79s4.63.59,6.53,1.77c1.9,1.18,3.36,2.88,4.4,5.09s1.56,4.79,1.57,7.73v1.68ZM333.66,721c0-3.34-.63-5.9-1.89-7.68-1.26-1.78-3.05-2.67-5.37-2.67s-4.03.89-5.31,2.66c-1.28,1.77-1.93,4.28-1.96,7.53v1.74c0,3.31.65,5.87,1.94,7.68,1.29,1.81,3.08,2.71,5.37,2.71s4.1-.88,5.35-2.65c1.25-1.77,1.87-4.35,1.87-7.74v-1.57Z"/>
      <path class="cls-24" d="M368.03,736.85h-5.24l-13.44-21.39v21.39h-5.24v-30.14h5.24l13.48,21.47v-21.47h5.2v30.14Z"/>
      <path class="cls-25" d="M391.57,706.71l8.7,23.1,8.67-23.1h6.77v30.14h-5.22v-9.94l.52-13.29-8.9,23.23h-3.75l-8.88-23.21.52,13.27v9.94h-5.22v-30.14h6.79Z"/>
      <path class="cls-25" d="M445.96,722.57c0,2.95-.51,5.54-1.53,7.77-1.02,2.23-2.48,3.94-4.38,5.13-1.9,1.19-4.08,1.79-6.55,1.79s-4.62-.6-6.53-1.79c-1.91-1.19-3.39-2.89-4.43-5.1-1.04-2.21-1.57-4.75-1.58-7.64v-1.7c0-2.94.52-5.53,1.56-7.78,1.04-2.25,2.51-3.97,4.41-5.17,1.9-1.19,4.08-1.79,6.53-1.79s4.63.59,6.53,1.77c1.9,1.18,3.36,2.88,4.4,5.09s1.56,4.79,1.57,7.73v1.68ZM440.72,721c0-3.34-.63-5.9-1.89-7.68s-3.05-2.67-5.37-2.67-4.03.89-5.31,2.66c-1.28,1.77-1.93,4.28-1.96,7.53v1.74c0,3.31.64,5.87,1.94,7.68,1.29,1.81,3.08,2.71,5.37,2.71s4.1-.88,5.35-2.65,1.87-4.35,1.87-7.74v-1.57Z"/>
      <path class="cls-25" d="M462.25,725.26h-5.84v11.59h-5.24v-30.14h10.6c3.48,0,6.16.78,8.05,2.34,1.89,1.56,2.84,3.82,2.84,6.78,0,2.02-.49,3.71-1.46,5.07-.97,1.36-2.33,2.41-4.07,3.14l6.77,12.55v.27h-5.61l-6.05-11.59ZM456.41,721.04h5.38c1.77,0,3.15-.44,4.14-1.33.99-.89,1.49-2.11,1.49-3.65s-.46-2.86-1.38-3.75c-.92-.88-2.29-1.34-4.11-1.37h-5.53v10.1Z"/>
      <path class="cls-25" d="M495.25,723.4h-12.38v9.28h14.47v4.18h-19.71v-30.14h19.56v4.22h-14.33v8.32h12.38v4.14Z"/>
      <path class="cls-24" d="M535.16,727.04c-.3,3.22-1.49,5.72-3.56,7.53-2.07,1.8-4.82,2.7-8.26,2.7-2.4,0-4.52-.57-6.34-1.71-1.83-1.14-3.24-2.76-4.23-4.85-.99-2.1-1.51-4.53-1.55-7.31v-2.82c0-2.84.5-5.35,1.51-7.51,1.01-2.17,2.45-3.84,4.34-5.01,1.88-1.17,4.06-1.76,6.53-1.76,3.33,0,6,.9,8.03,2.7,2.03,1.8,3.21,4.35,3.54,7.65h-5.22c-.25-2.17-.88-3.73-1.89-4.69-1.01-.96-2.5-1.44-4.46-1.44-2.28,0-4.03.83-5.25,2.5-1.22,1.66-1.85,4.11-1.87,7.33v2.67c0,3.26.58,5.75,1.75,7.46,1.17,1.71,2.88,2.57,5.12,2.57,2.06,0,3.6-.46,4.64-1.39s1.69-2.46,1.97-4.62h5.22Z"/>
      <path class="cls-24" d="M563.9,722.57c0,2.95-.51,5.54-1.53,7.77-1.02,2.23-2.48,3.94-4.38,5.13-1.9,1.19-4.08,1.79-6.55,1.79s-4.62-.6-6.53-1.79c-1.91-1.19-3.39-2.89-4.43-5.1-1.04-2.21-1.57-4.75-1.58-7.64v-1.7c0-2.94.52-5.53,1.56-7.78,1.04-2.25,2.51-3.97,4.41-5.17,1.9-1.19,4.08-1.79,6.53-1.79s4.63.59,6.53,1.77c1.9,1.18,3.36,2.88,4.4,5.09s1.56,4.79,1.57,7.73v1.68ZM558.66,721c0-3.34-.63-5.9-1.89-7.68s-3.05-2.67-5.37-2.67-4.03.89-5.31,2.66c-1.28,1.77-1.93,4.28-1.96,7.53v1.74c0,3.31.64,5.87,1.94,7.68,1.29,1.81,3.08,2.71,5.37,2.71s4.1-.88,5.35-2.65,1.87-4.35,1.87-7.74v-1.57Z"/>
      <path class="cls-24" d="M593.03,736.85h-5.24l-13.44-21.39v21.39h-5.24v-30.14h5.24l13.48,21.47v-21.47h5.2v30.14Z"/>
      <path class="cls-24" d="M622.22,727.04c-.3,3.22-1.49,5.72-3.56,7.53-2.07,1.8-4.82,2.7-8.26,2.7-2.4,0-4.52-.57-6.34-1.71-1.83-1.14-3.24-2.76-4.23-4.85-.99-2.1-1.51-4.53-1.55-7.31v-2.82c0-2.84.5-5.35,1.51-7.51,1.01-2.17,2.45-3.84,4.34-5.01,1.88-1.17,4.06-1.76,6.53-1.76,3.33,0,6,.9,8.03,2.7,2.03,1.8,3.21,4.35,3.54,7.65h-5.22c-.25-2.17-.88-3.73-1.89-4.69-1.01-.96-2.5-1.44-4.46-1.44-2.28,0-4.03.83-5.25,2.5-1.22,1.66-1.85,4.11-1.87,7.33v2.67c0,3.26.58,5.75,1.75,7.46,1.17,1.71,2.88,2.57,5.12,2.57,2.06,0,3.6-.46,4.64-1.39s1.69-2.46,1.97-4.62h5.22Z"/>
      <path class="cls-24" d="M632.13,732.67h13.68v4.18h-18.92v-30.14h5.24v25.96Z"/>
      <path class="cls-24" d="M671.39,706.71v20.14c0,3.2-1.02,5.74-3.07,7.61-2.05,1.87-4.78,2.81-8.19,2.81s-6.19-.92-8.22-2.76c-2.03-1.84-3.04-4.4-3.04-7.67v-20.12h5.22v20.17c0,2.01.51,3.55,1.53,4.62,1.02,1.06,2.53,1.59,4.51,1.59,4.03,0,6.04-2.13,6.04-6.38v-20h5.22Z"/>
      <path class="cls-24" d="M692.73,729.09c0-1.33-.46-2.35-1.4-3.06s-2.61-1.44-5.04-2.17c-2.43-.73-4.36-1.55-5.8-2.44-2.75-1.72-4.12-3.97-4.12-6.75,0-2.43.99-4.43,2.97-6s4.55-2.36,7.71-2.36c2.1,0,3.97.39,5.61,1.16,1.64.77,2.93,1.87,3.87,3.3s1.41,3.01,1.41,4.75h-5.22c0-1.57-.49-2.8-1.48-3.7-.99-.89-2.4-1.33-4.23-1.33-1.71,0-3.04.37-3.99,1.1s-1.42,1.75-1.42,3.06c0,1.1.51,2.03,1.53,2.76s2.71,1.46,5.05,2.15c2.35.7,4.23,1.49,5.65,2.38,1.42.89,2.46,1.91,3.13,3.06.66,1.15.99,2.5.99,4.05,0,2.51-.96,4.51-2.89,5.99-1.93,1.48-4.54,2.23-7.84,2.23-2.18,0-4.19-.4-6.01-1.21s-3.25-1.92-4.26-3.34c-1.01-1.42-1.52-3.08-1.52-4.97h5.24c0,1.71.57,3.04,1.7,3.97,1.13.94,2.75,1.41,4.87,1.41,1.82,0,3.19-.37,4.11-1.11.92-.74,1.38-1.71,1.38-2.93Z"/>
      <path class="cls-24" d="M708.09,736.85h-5.22v-30.14h5.22v30.14Z"/>
      <path class="cls-24" d="M738.59,722.57c0,2.95-.51,5.54-1.53,7.77-1.02,2.23-2.48,3.94-4.38,5.13-1.9,1.19-4.08,1.79-6.55,1.79s-4.62-.6-6.53-1.79c-1.91-1.19-3.39-2.89-4.43-5.1-1.04-2.21-1.57-4.75-1.58-7.64v-1.7c0-2.94.52-5.53,1.56-7.78,1.04-2.25,2.51-3.97,4.41-5.17,1.9-1.19,4.08-1.79,6.53-1.79s4.63.59,6.53,1.77c1.9,1.18,3.36,2.88,4.4,5.09s1.56,4.79,1.57,7.73v1.68ZM733.35,721c0-3.34-.63-5.9-1.89-7.68s-3.05-2.67-5.37-2.67-4.03.89-5.31,2.66c-1.28,1.77-1.93,4.28-1.96,7.53v1.74c0,3.31.64,5.87,1.94,7.68,1.29,1.81,3.08,2.71,5.37,2.71s4.1-.88,5.35-2.65,1.87-4.35,1.87-7.74v-1.57Z"/>
      <path class="cls-24" d="M767.72,736.85h-5.24l-13.44-21.39v21.39h-5.24v-30.14h5.24l13.48,21.47v-21.47h5.2v30.14Z"/>
    </g>
  </g>
  <g>
    <polyline class="cls-21" points="364.62 163.77 495.92 241.88 495.92 379.41 466.74 392.99 326.32 314.89"/>
    <polyline class="cls-2" points="482.83 317.18 341.47 235.39 308.59 255.02 308.59 367.89 308.92 386.1 464.61 468.92"/>
    <polyline class="cls-7" points="353.64 328.14 363.58 328.14 472.89 396.04 501.05 379.48 499.39 242.01 351.98 155.89"/>
    <polyline class="cls-20" points="406.64 116.14 413.27 116.14 565.64 208.64 565.64 417.57 419.89 508.67 406.64 508.67"/>
    <polyline class="cls-3" points="406.64 116.14 396.7 116.14 230.09 220.06 231.71 413.93 391.73 510.32 406.64 510.32"/>
    <polygon class="cls-23" points="408.28 79.83 598.76 193.98 598.76 194.24 598.67 431.61 598.67 432.05 406.59 550.07 406.64 550.07 201.25 437.46 201.24 437.44 201.27 195.64 201.25 193.98 404.97 79.83 408.28 79.83"/>
    <polyline class="cls-22" points="406.64 149.26 267.52 232.08 267.54 391.07 406.64 473.88"/>
    <line class="cls-22" x1="201.26" y1="437.33" x2="201.26" y2="193.86"/>
    <g>
      <polygon class="cls-23" points="532.51 232.08 532.51 391.07 532.51 391.07 467.92 432.28 406.64 473.88 406.64 473.88 267.54 391.1 267.54 391.07 267.52 232.08 406.64 149.26 532.51 232.08"/>
      <polyline class="cls-23" points="467.92 432.48 462.95 430.84 347.02 367.89 347.02 367.89 347.03 282.14 347.03 282.14 466.25 347.62 466.25 347.62 466.26 261.89 466.26 261.89 338.51 185.7"/>
      <polyline class="cls-4" points="406.62 149.13 267.5 231.95 267.52 390.94 406.62 473.75"/>
    </g>
  </g>
</svg>